<mxfile modified="2021-07-06T08:34:37.248Z" host="app.diagrams.net" agent="5.0 (Windows NT 10.0; Win64; x64) AppleWebKit/537.36 (KHTML, like Gecko) Chrome/83.0.4103.61 Safari/537.36" etag="BOswBMO1_3pmL7811oVT" version="14.8.4" type="github">
  <diagram id="f106602c-feb2-e66a-4537-3a34d633f6aa" name="Page-1">
    <mxGraphModel dx="782" dy="483" grid="1" gridSize="10" guides="1" tooltips="1" connect="1" arrows="1" fold="1" page="1" pageScale="1" pageWidth="1169" pageHeight="827" background="#ffffff" math="0" shadow="0">
      <root>
        <mxCell id="0" />
        <mxCell id="1" parent="0" />
        <mxCell id="G245-s3OqqWEg4Bqu4Ok-721" value="" style="fillColor=#F6F6F6;strokeColor=none;shadow=0;gradientColor=none;fontSize=14;align=left;spacing=10;fontColor=#717171;9E9E9E;verticalAlign=top;spacingTop=-4;fontStyle=0;spacingLeft=40;html=1;" parent="1" vertex="1">
          <mxGeometry x="450" y="780" width="420" height="150" as="geometry" />
        </mxCell>
        <mxCell id="14" value="" style="fillColor=#F6F6F6;strokeColor=none;shadow=0;gradientColor=none;fontSize=14;align=left;spacing=10;fontColor=#717171;9E9E9E;verticalAlign=top;spacingTop=-4;fontStyle=0;spacingLeft=40;html=1;" parent="1" vertex="1">
          <mxGeometry x="450" y="100" width="420" height="430" as="geometry" />
        </mxCell>
        <mxCell id="711" value="sql编辑" style="rounded=1;absoluteArcSize=1;arcSize=2;html=1;strokeColor=none;gradientColor=none;shadow=0;dashed=0;strokeColor=none;fontSize=12;fontColor=#9E9E9E;align=left;verticalAlign=top;spacing=10;spacingTop=-4;fillColor=#E1F5FE;" parent="1" vertex="1">
          <mxGeometry x="450" y="100" width="610" height="220" as="geometry" />
        </mxCell>
        <mxCell id="712" style="edgeStyle=orthogonalEdgeStyle;rounded=0;html=1;labelBackgroundColor=none;startFill=1;startSize=4;endArrow=blockThin;endFill=1;endSize=4;jettySize=auto;orthogonalLoop=1;strokeColor=#4284F3;strokeWidth=2;fontSize=12;fontColor=#000000;align=center;dashed=0;" parent="1" source="705" target="711" edge="1">
          <mxGeometry relative="1" as="geometry">
            <Array as="points">
              <mxPoint x="420" y="230" />
              <mxPoint x="420" y="190" />
            </Array>
          </mxGeometry>
        </mxCell>
        <mxCell id="705" value="销售侧开发人员" style="rounded=1;absoluteArcSize=1;arcSize=2;html=1;strokeColor=none;gradientColor=none;shadow=0;dashed=0;strokeColor=none;fontSize=12;fontColor=#9E9E9E;align=left;verticalAlign=top;spacing=10;spacingTop=-4;fillColor=#FFF8E1;" parent="1" vertex="1">
          <mxGeometry x="250" y="170" width="120" height="100" as="geometry" />
        </mxCell>
        <mxCell id="2" value="Flow &amp;amp;&amp;nbsp;Interactive" style="fillColor=#4DA1F5;strokeColor=none;shadow=1;gradientColor=none;fontSize=14;align=left;spacingLeft=50;fontColor=#ffffff;html=1;" parent="1" vertex="1">
          <mxGeometry x="198.75" y="40" width="1160" height="50" as="geometry" />
        </mxCell>
        <mxCell id="697" value="" style="strokeColor=#dddddd;fillColor=#ffffff;shadow=1;strokeWidth=1;rounded=1;absoluteArcSize=1;arcSize=2;fontSize=10;fontColor=#9E9E9E;align=center;html=1;" parent="1" vertex="1">
          <mxGeometry x="462" y="160" width="158" height="60" as="geometry" />
        </mxCell>
        <mxCell id="698" value="&lt;br&gt;sql编辑、查询服务" style="dashed=0;connectable=0;html=1;fillColor=#5184F3;strokeColor=none;shape=mxgraph.gcp2.hexIcon;prIcon=cloud_storage;part=1;labelPosition=right;verticalLabelPosition=middle;align=left;verticalAlign=middle;spacingLeft=5;fontColor=#999999;fontSize=12;" parent="697" vertex="1">
          <mxGeometry y="0.5" width="44" height="39" relative="1" as="geometry">
            <mxPoint x="5" y="-19.5" as="offset" />
          </mxGeometry>
        </mxCell>
        <mxCell id="G245-s3OqqWEg4Bqu4Ok-720" value="" style="verticalLabelPosition=bottom;html=1;verticalAlign=top;align=center;strokeColor=none;fillColor=#00BEF2;shape=mxgraph.azure.mobile;pointerEvents=1;" parent="1" vertex="1">
          <mxGeometry x="556" y="820" width="35" height="50" as="geometry" />
        </mxCell>
        <mxCell id="G245-s3OqqWEg4Bqu4Ok-722" value="&lt;span style=&quot;color: rgba(0 , 0 , 0 , 0) ; font-family: monospace ; font-size: 0px&quot;&gt;%3CmxGraphModel%3E%3Croot%3E%3CmxCell%20id%3D%220%22%2F%3E%3CmxCell%20id%3D%221%22%20parent%3D%220%22%2F%3E%3CmxCell%20id%3D%222%22%20value%3D%22%22%20style%3D%22fillColor%3D%23F6F6F6%3BstrokeColor%3Dnone%3Bshadow%3D0%3BgradientColor%3Dnone%3BfontSize%3D14%3Balign%3Dleft%3Bspacing%3D10%3BfontColor%3D%23717171%3B9E9E9E%3BverticalAlign%3Dtop%3BspacingTop%3D-4%3BfontStyle%3D0%3BspacingLeft%3D40%3Bhtml%3D1%3B%22%20vertex%3D%221%22%20parent%3D%221%22%3E%3CmxGeometry%20x%3D%22450%22%20y%3D%22100%22%20width%3D%22420%22%20height%3D%22430%22%20as%3D%22geometry%22%2F%3E%3C%2FmxCell%3E%3C%2Froot%3E%3C%2FmxGraphModel%3E&lt;/span&gt;" style="verticalLabelPosition=bottom;html=1;verticalAlign=top;align=center;strokeColor=none;fillColor=#00BEF2;shape=mxgraph.azure.user;" parent="1" vertex="1">
          <mxGeometry x="286.25" y="210" width="47.5" height="50" as="geometry" />
        </mxCell>
        <mxCell id="G245-s3OqqWEg4Bqu4Ok-725" value="" style="html=1;fillColor=#5184F3;strokeColor=none;verticalAlign=top;labelPosition=center;verticalLabelPosition=bottom;align=center;spacingTop=-6;fontSize=11;fontStyle=1;fontColor=#999999;shape=mxgraph.gcp2.hexIcon;prIcon=cloud_run" parent="1" vertex="1">
          <mxGeometry x="490" y="414" width="66" height="58.5" as="geometry" />
        </mxCell>
        <mxCell id="G245-s3OqqWEg4Bqu4Ok-726" value="Cloud Run" style="html=1;fillColor=#5184F3;strokeColor=none;verticalAlign=top;labelPosition=center;verticalLabelPosition=bottom;align=center;spacingTop=-6;fontSize=11;fontStyle=1;fontColor=#999999;shape=mxgraph.gcp2.hexIcon;prIcon=cloud_run" parent="1" vertex="1">
          <mxGeometry x="490" y="440" width="66" height="58.5" as="geometry" />
        </mxCell>
        <mxCell id="707" value="统计查询" style="rounded=1;absoluteArcSize=1;arcSize=2;html=1;strokeColor=none;gradientColor=none;shadow=0;dashed=0;strokeColor=none;fontSize=12;fontColor=#9E9E9E;align=left;verticalAlign=top;spacing=10;spacingTop=-4;fillColor=#F1F8E9;" parent="1" vertex="1">
          <mxGeometry x="450" y="320" width="610" height="320" as="geometry" />
        </mxCell>
        <mxCell id="G245-s3OqqWEg4Bqu4Ok-731" value="" style="strokeColor=#dddddd;shadow=1;strokeWidth=1;rounded=1;absoluteArcSize=1;arcSize=2;" parent="1" vertex="1">
          <mxGeometry x="661.25" y="340" width="125" height="40" as="geometry" />
        </mxCell>
        <mxCell id="G245-s3OqqWEg4Bqu4Ok-732" value="&lt;font color=&quot;#000000&quot;&gt;sql_table&lt;/font&gt;&lt;br&gt;Cloud SQL" style="dashed=0;connectable=0;html=1;fillColor=#5184F3;strokeColor=none;shape=mxgraph.gcp2.hexIcon;prIcon=cloud_sql;part=1;labelPosition=right;verticalLabelPosition=middle;align=left;verticalAlign=middle;spacingLeft=5;fontColor=#999999;fontSize=12;" parent="G245-s3OqqWEg4Bqu4Ok-731" vertex="1">
          <mxGeometry y="0.5" width="44" height="39" relative="1" as="geometry">
            <mxPoint x="5" y="-19.5" as="offset" />
          </mxGeometry>
        </mxCell>
        <mxCell id="G245-s3OqqWEg4Bqu4Ok-737" style="edgeStyle=orthogonalEdgeStyle;rounded=0;html=1;labelBackgroundColor=none;startFill=1;startSize=4;endArrow=blockThin;endFill=1;endSize=4;jettySize=auto;orthogonalLoop=1;strokeColor=#4284F3;strokeWidth=2;fontSize=12;fontColor=#000000;align=center;dashed=0;entryX=0;entryY=0.5;entryDx=0;entryDy=0;exitX=1;exitY=0.5;exitDx=0;exitDy=0;" parent="1" source="697" target="l1sQlq1KdcyGu-_ffM4d-725" edge="1">
          <mxGeometry relative="1" as="geometry">
            <Array as="points" />
            <mxPoint x="620" y="280" as="sourcePoint" />
            <mxPoint x="720" y="350" as="targetPoint" />
          </mxGeometry>
        </mxCell>
        <mxCell id="G245-s3OqqWEg4Bqu4Ok-749" value="" style="strokeColor=#dddddd;fillColor=#ffffff;shadow=1;strokeWidth=1;rounded=1;absoluteArcSize=1;arcSize=2;fontSize=10;fontColor=#9E9E9E;align=center;html=1;" parent="1" vertex="1">
          <mxGeometry x="511.25" y="490" width="150" height="60" as="geometry" />
        </mxCell>
        <mxCell id="G245-s3OqqWEg4Bqu4Ok-750" value="&lt;font color=&quot;#000000&quot;&gt;数据组合&lt;/font&gt;" style="dashed=0;connectable=0;html=1;fillColor=#5184F3;strokeColor=none;shape=mxgraph.gcp2.hexIcon;prIcon=cloud_dataflow;part=1;labelPosition=right;verticalLabelPosition=middle;align=left;verticalAlign=middle;spacingLeft=5;fontColor=#999999;fontSize=12;" parent="G245-s3OqqWEg4Bqu4Ok-749" vertex="1">
          <mxGeometry y="0.5" width="44" height="39" relative="1" as="geometry">
            <mxPoint x="5" y="-19.5" as="offset" />
          </mxGeometry>
        </mxCell>
        <mxCell id="G245-s3OqqWEg4Bqu4Ok-758" style="edgeStyle=orthogonalEdgeStyle;rounded=0;html=1;labelBackgroundColor=none;startFill=1;startSize=4;endArrow=blockThin;endFill=1;endSize=4;jettySize=auto;orthogonalLoop=1;strokeColor=#4284F3;strokeWidth=2;fontSize=12;fontColor=#000000;align=center;dashed=0;exitX=0.715;exitY=0.912;exitDx=0;exitDy=0;exitPerimeter=0;entryX=0.386;entryY=0.038;entryDx=0;entryDy=0;entryPerimeter=0;" parent="1" edge="1" target="G245-s3OqqWEg4Bqu4Ok-731">
          <mxGeometry relative="1" as="geometry">
            <Array as="points" />
            <mxPoint x="709.5" y="229.99599999999995" as="sourcePoint" />
            <mxPoint x="709.5" y="263.5925235901856" as="targetPoint" />
          </mxGeometry>
        </mxCell>
        <mxCell id="G245-s3OqqWEg4Bqu4Ok-759" style="edgeStyle=orthogonalEdgeStyle;rounded=0;html=1;labelBackgroundColor=none;startFill=1;startSize=4;endArrow=blockThin;endFill=1;endSize=4;jettySize=auto;orthogonalLoop=1;strokeColor=#4284F3;strokeWidth=2;fontSize=12;fontColor=#000000;align=center;dashed=0;entryX=0;entryY=0.5;entryDx=0;entryDy=0;exitX=0.572;exitY=0.577;exitDx=0;exitDy=0;exitPerimeter=0;" parent="1" target="G245-s3OqqWEg4Bqu4Ok-749" edge="1" source="l1sQlq1KdcyGu-_ffM4d-724">
          <mxGeometry relative="1" as="geometry">
            <Array as="points">
              <mxPoint x="450" y="411" />
              <mxPoint x="450" y="520" />
            </Array>
            <mxPoint x="579" y="480" as="sourcePoint" />
            <mxPoint x="650" y="450" as="targetPoint" />
          </mxGeometry>
        </mxCell>
        <mxCell id="PuhiZ39EmkUhV1063GtV-720" value="数据层" style="points=[[0,0,0],[0.25,0,0],[0.5,0,0],[0.75,0,0],[1,0,0],[1,0.25,0],[1,0.5,0],[1,0.75,0],[1,1,0],[0.75,1,0],[0.5,1,0],[0.25,1,0],[0,1,0],[0,0.75,0],[0,0.5,0],[0,0.25,0]];rounded=1;absoluteArcSize=1;arcSize=2;html=1;strokeColor=none;gradientColor=none;shadow=0;dashed=0;fontSize=12;fontColor=#9E9E9E;align=left;verticalAlign=top;spacing=10;spacingTop=-4;fillColor=#E0F2F1;" parent="1" vertex="1">
          <mxGeometry x="450" y="630" width="420" height="150" as="geometry" />
        </mxCell>
        <mxCell id="PuhiZ39EmkUhV1063GtV-721" value="" style="strokeColor=#dddddd;shadow=1;strokeWidth=1;rounded=1;absoluteArcSize=1;arcSize=2;" parent="1" vertex="1">
          <mxGeometry x="615" y="667.5" width="155" height="60" as="geometry" />
        </mxCell>
        <mxCell id="PuhiZ39EmkUhV1063GtV-722" value="数据收集" style="dashed=0;connectable=0;html=1;fillColor=#5184F3;strokeColor=none;shape=mxgraph.gcp2.hexIcon;prIcon=gke_on_prem;part=1;labelPosition=right;verticalLabelPosition=middle;align=left;verticalAlign=middle;spacingLeft=5;fontColor=#999999;fontSize=12;" parent="PuhiZ39EmkUhV1063GtV-721" vertex="1">
          <mxGeometry y="0.5" width="44" height="39" relative="1" as="geometry">
            <mxPoint x="5" y="-19.5" as="offset" />
          </mxGeometry>
        </mxCell>
        <mxCell id="PuhiZ39EmkUhV1063GtV-727" style="edgeStyle=orthogonalEdgeStyle;rounded=0;html=1;labelBackgroundColor=none;startFill=1;startSize=4;endArrow=blockThin;endFill=1;endSize=4;jettySize=auto;orthogonalLoop=1;strokeColor=#4284F3;strokeWidth=2;fontSize=12;fontColor=#000000;align=center;dashed=0;exitX=0;exitY=0.5;exitDx=0;exitDy=0;" parent="1" source="PuhiZ39EmkUhV1063GtV-721" edge="1">
          <mxGeometry relative="1" as="geometry">
            <Array as="points">
              <mxPoint x="615" y="696" />
            </Array>
            <mxPoint x="551" y="840" as="sourcePoint" />
            <mxPoint x="541" y="696" as="targetPoint" />
          </mxGeometry>
        </mxCell>
        <mxCell id="jsMgI3IwnFYApVVyTUsu-719" style="edgeStyle=orthogonalEdgeStyle;rounded=0;html=1;labelBackgroundColor=none;startFill=1;startSize=4;endArrow=blockThin;endFill=1;endSize=4;jettySize=auto;orthogonalLoop=1;strokeColor=#4284F3;strokeWidth=2;fontSize=12;fontColor=#000000;align=center;dashed=0;" parent="1" source="l1sQlq1KdcyGu-_ffM4d-734" edge="1">
          <mxGeometry relative="1" as="geometry">
            <Array as="points">
              <mxPoint x="550" y="490" />
            </Array>
            <mxPoint x="834" y="500" as="sourcePoint" />
            <mxPoint x="550" y="490" as="targetPoint" />
          </mxGeometry>
        </mxCell>
        <mxCell id="Hj5QTHdNOrWkijUCsh94-719" value="数据平台Spark/Flink" style="rounded=1;absoluteArcSize=1;arcSize=2;html=1;strokeColor=none;gradientColor=none;shadow=0;dashed=0;strokeColor=none;fontSize=12;fontColor=#9E9E9E;align=left;verticalAlign=top;spacing=10;spacingTop=-4;fillColor=#F1F8E9;" parent="1" vertex="1">
          <mxGeometry x="1070" y="100" width="410" height="530" as="geometry" />
        </mxCell>
        <mxCell id="l1sQlq1KdcyGu-_ffM4d-720" value="ElasticSearch" style="shape=image;html=1;verticalAlign=top;verticalLabelPosition=bottom;labelBackgroundColor=#ffffff;imageAspect=0;aspect=fixed;image=https://cdn4.iconfinder.com/data/icons/logos-brands-5/24/elasticsearch-128.png" vertex="1" parent="1">
          <mxGeometry x="470" y="667.5" width="69" height="69" as="geometry" />
        </mxCell>
        <mxCell id="l1sQlq1KdcyGu-_ffM4d-723" value="销售侧服务" style="points=[[0,0,0],[0.25,0,0],[0.5,0,0],[0.75,0,0],[1,0,0],[1,0.25,0],[1,0.5,0],[1,0.75,0],[1,1,0],[0.75,1,0],[0.5,1,0],[0.25,1,0],[0,1,0],[0,0.75,0],[0,0.5,0],[0,0.25,0]];rounded=1;absoluteArcSize=1;arcSize=2;html=1;strokeColor=#82b366;shadow=0;dashed=0;fontSize=12;align=left;verticalAlign=top;spacing=10;spacingTop=-4;fillColor=#d5e8d4;" vertex="1" parent="1">
          <mxGeometry x="240" y="320" width="170" height="270" as="geometry" />
        </mxCell>
        <mxCell id="l1sQlq1KdcyGu-_ffM4d-724" value="" style="html=1;fillColor=#5184F3;strokeColor=none;verticalAlign=top;labelPosition=center;verticalLabelPosition=bottom;align=center;spacingTop=-6;fontSize=11;fontStyle=1;fontColor=#999999;shape=mxgraph.gcp2.hexIcon;prIcon=placeholder" vertex="1" parent="1">
          <mxGeometry x="286.25" y="376.75" width="66" height="58.5" as="geometry" />
        </mxCell>
        <mxCell id="l1sQlq1KdcyGu-_ffM4d-725" value="窗口时间" style="rhombus;whiteSpace=wrap;html=1;" vertex="1" parent="1">
          <mxGeometry x="670" y="150" width="80" height="80" as="geometry" />
        </mxCell>
        <mxCell id="l1sQlq1KdcyGu-_ffM4d-726" value="人工审查/修改" style="html=1;align=center;verticalAlign=top;rounded=1;absoluteArcSize=1;arcSize=20;dashed=1;" vertex="1" parent="1">
          <mxGeometry x="850" y="160" width="136.25" height="60" as="geometry" />
        </mxCell>
        <mxCell id="l1sQlq1KdcyGu-_ffM4d-727" style="edgeStyle=orthogonalEdgeStyle;rounded=0;html=1;labelBackgroundColor=none;startFill=1;startSize=4;endArrow=blockThin;endFill=1;endSize=4;jettySize=auto;orthogonalLoop=1;strokeColor=#4284F3;strokeWidth=2;fontSize=12;fontColor=#000000;align=center;dashed=0;exitX=1;exitY=0.5;exitDx=0;exitDy=0;entryX=0;entryY=0.5;entryDx=0;entryDy=0;" edge="1" parent="1" target="l1sQlq1KdcyGu-_ffM4d-726">
          <mxGeometry relative="1" as="geometry">
            <Array as="points" />
            <mxPoint x="753.75" y="189.5" as="sourcePoint" />
            <mxPoint x="780" y="190" as="targetPoint" />
          </mxGeometry>
        </mxCell>
        <mxCell id="l1sQlq1KdcyGu-_ffM4d-728" value="&amp;gt; 1个月" style="text;html=1;resizable=0;autosize=1;align=center;verticalAlign=middle;points=[];fillColor=none;strokeColor=none;rounded=0;" vertex="1" parent="1">
          <mxGeometry x="760" y="160" width="60" height="20" as="geometry" />
        </mxCell>
        <mxCell id="l1sQlq1KdcyGu-_ffM4d-729" value="" style="shape=mxgraph.gcp2.doubleRect;strokeColor=#dddddd;shadow=1;strokeWidth=1;" vertex="1" parent="1">
          <mxGeometry x="1100" y="160" width="158" height="68" as="geometry" />
        </mxCell>
        <mxCell id="l1sQlq1KdcyGu-_ffM4d-730" value="&lt;font color=&quot;#000000&quot;&gt;Api Gateway&lt;br&gt;&lt;br&gt;&lt;/font&gt;" style="dashed=0;connectable=0;html=1;fillColor=#5184F3;strokeColor=none;shape=mxgraph.gcp2.hexIcon;prIcon=cloud_functions;part=1;labelPosition=right;verticalLabelPosition=middle;align=left;verticalAlign=middle;spacingLeft=5;fontColor=#999999;fontSize=12;" vertex="1" parent="l1sQlq1KdcyGu-_ffM4d-729">
          <mxGeometry y="0.5" width="44" height="39" relative="1" as="geometry">
            <mxPoint x="5" y="-19.5" as="offset" />
          </mxGeometry>
        </mxCell>
        <mxCell id="l1sQlq1KdcyGu-_ffM4d-732" style="edgeStyle=orthogonalEdgeStyle;rounded=0;html=1;labelBackgroundColor=none;startFill=1;startSize=4;endArrow=blockThin;endFill=1;endSize=4;jettySize=auto;orthogonalLoop=1;strokeColor=#4284F3;strokeWidth=2;fontSize=12;fontColor=#000000;align=center;dashed=0;exitX=1;exitY=0.5;exitDx=0;exitDy=0;" edge="1" parent="1">
          <mxGeometry relative="1" as="geometry">
            <Array as="points">
              <mxPoint x="1080" y="190" />
              <mxPoint x="1080" y="190" />
            </Array>
            <mxPoint x="986.25" y="189.5" as="sourcePoint" />
            <mxPoint x="1110" y="190" as="targetPoint" />
          </mxGeometry>
        </mxCell>
        <mxCell id="l1sQlq1KdcyGu-_ffM4d-733" value="窗口统计时间" style="text;html=1;resizable=0;autosize=1;align=center;verticalAlign=middle;points=[];fillColor=none;strokeColor=none;rounded=0;" vertex="1" parent="1">
          <mxGeometry x="985" y="160" width="90" height="20" as="geometry" />
        </mxCell>
        <mxCell id="G245-s3OqqWEg4Bqu4Ok-728" value="" style="shape=mxgraph.gcp2.doubleRect;strokeColor=#dddddd;shadow=1;strokeWidth=1;" parent="1" vertex="1">
          <mxGeometry x="1180" y="290" width="158" height="68" as="geometry" />
        </mxCell>
        <mxCell id="G245-s3OqqWEg4Bqu4Ok-729" value="&lt;font color=&quot;#000000&quot;&gt;sql调度&lt;/font&gt;" style="dashed=0;connectable=0;html=1;fillColor=#5184F3;strokeColor=none;shape=mxgraph.gcp2.hexIcon;prIcon=persistent_disk;part=1;labelPosition=right;verticalLabelPosition=middle;align=left;verticalAlign=middle;spacingLeft=5;fontColor=#999999;fontSize=12;" parent="G245-s3OqqWEg4Bqu4Ok-728" vertex="1">
          <mxGeometry y="0.5" width="44" height="39" relative="1" as="geometry">
            <mxPoint x="5" y="-19.5" as="offset" />
          </mxGeometry>
        </mxCell>
        <mxCell id="G245-s3OqqWEg4Bqu4Ok-730" value="" style="html=1;fillColor=#2875E2;strokeColor=#ffffff;verticalAlign=top;labelPosition=center;verticalLabelPosition=bottom;align=center;spacingTop=-6;fontSize=12;fontStyle=1;fontColor=#000000;shape=mxgraph.gcp2.hexIcon;prIcon=cloud_run;dashed=0;fontFamily=Helvetica;" parent="G245-s3OqqWEg4Bqu4Ok-728" vertex="1">
          <mxGeometry y="10" width="50" height="48" as="geometry" />
        </mxCell>
        <mxCell id="l1sQlq1KdcyGu-_ffM4d-734" value="&lt;font style=&quot;font-size: 15px&quot;&gt;sql 验证&lt;/font&gt;" style="strokeColor=#dddddd;fillColor=#ffffff;shadow=1;strokeWidth=1;rounded=1;absoluteArcSize=1;arcSize=2;fontSize=10;fontColor=#9E9E9E;align=center;html=1;" vertex="1" parent="1">
          <mxGeometry x="480" y="230" width="140" height="60" as="geometry" />
        </mxCell>
        <mxCell id="l1sQlq1KdcyGu-_ffM4d-736" value="" style="html=1;aspect=fixed;strokeColor=none;shadow=0;align=center;verticalAlign=top;fillColor=#3B8DF1;shape=mxgraph.gcp2.big_query" vertex="1" parent="l1sQlq1KdcyGu-_ffM4d-734">
          <mxGeometry x="8.860759493670885" y="20.689655172413794" width="17.410344827586208" height="17.586206896551726" as="geometry" />
        </mxCell>
        <mxCell id="l1sQlq1KdcyGu-_ffM4d-738" value="" style="strokeColor=#dddddd;shadow=1;strokeWidth=1;rounded=1;absoluteArcSize=1;arcSize=2;" vertex="1" parent="1">
          <mxGeometry x="1080" y="570" width="125" height="40" as="geometry" />
        </mxCell>
        <mxCell id="l1sQlq1KdcyGu-_ffM4d-739" value="&lt;font color=&quot;#000000&quot;&gt;agg_table&lt;/font&gt;&lt;br&gt;Cloud SQL" style="dashed=0;connectable=0;html=1;fillColor=#5184F3;strokeColor=none;shape=mxgraph.gcp2.hexIcon;prIcon=cloud_sql;part=1;labelPosition=right;verticalLabelPosition=middle;align=left;verticalAlign=middle;spacingLeft=5;fontColor=#999999;fontSize=12;" vertex="1" parent="l1sQlq1KdcyGu-_ffM4d-738">
          <mxGeometry y="0.5" width="44" height="39" relative="1" as="geometry">
            <mxPoint x="5" y="-19.5" as="offset" />
          </mxGeometry>
        </mxCell>
        <mxCell id="G245-s3OqqWEg4Bqu4Ok-768" style="edgeStyle=orthogonalEdgeStyle;rounded=0;html=1;labelBackgroundColor=none;startFill=1;startSize=4;endArrow=blockThin;endFill=1;endSize=4;jettySize=auto;orthogonalLoop=1;strokeColor=#4284F3;strokeWidth=2;fontSize=12;fontColor=#000000;align=center;dashed=0;exitX=1;exitY=0.5;exitDx=0;exitDy=0;" parent="1" edge="1" target="l1sQlq1KdcyGu-_ffM4d-738" source="G245-s3OqqWEg4Bqu4Ok-749">
          <mxGeometry relative="1" as="geometry">
            <Array as="points">
              <mxPoint x="960" y="520" />
              <mxPoint x="960" y="520" />
            </Array>
            <mxPoint x="824" y="490" as="sourcePoint" />
            <mxPoint x="900" y="490" as="targetPoint" />
          </mxGeometry>
        </mxCell>
        <mxCell id="l1sQlq1KdcyGu-_ffM4d-740" style="edgeStyle=orthogonalEdgeStyle;rounded=0;html=1;labelBackgroundColor=none;startFill=1;startSize=4;endArrow=blockThin;endFill=1;endSize=4;jettySize=auto;orthogonalLoop=1;strokeColor=#4284F3;strokeWidth=2;fontSize=12;fontColor=#000000;align=center;dashed=0;exitX=0.715;exitY=0.912;exitDx=0;exitDy=0;exitPerimeter=0;entryX=0.386;entryY=0.038;entryDx=0;entryDy=0;entryPerimeter=0;" edge="1" parent="1">
          <mxGeometry relative="1" as="geometry">
            <Array as="points" />
            <mxPoint x="519.5" y="555.976" as="sourcePoint" />
            <mxPoint x="519.5" y="667.5" as="targetPoint" />
          </mxGeometry>
        </mxCell>
        <mxCell id="l1sQlq1KdcyGu-_ffM4d-751" style="edgeStyle=orthogonalEdgeStyle;rounded=0;orthogonalLoop=1;jettySize=auto;html=1;strokeWidth=2;strokeColor=#FF6666;" edge="1" parent="1" source="l1sQlq1KdcyGu-_ffM4d-744" target="l1sQlq1KdcyGu-_ffM4d-749">
          <mxGeometry relative="1" as="geometry" />
        </mxCell>
        <mxCell id="l1sQlq1KdcyGu-_ffM4d-744" value="kafka" style="points=[[0,0,0],[0.25,0,0],[0.5,0,0],[0.75,0,0],[1,0,0],[0,1,0],[0.25,1,0],[0.5,1,0],[0.75,1,0],[1,1,0],[0,0.25,0],[0,0.5,0],[0,0.75,0],[1,0.25,0],[1,0.5,0],[1,0.75,0]];outlineConnect=0;fontColor=#232F3E;gradientColor=#945DF2;gradientDirection=north;fillColor=#5A30B5;strokeColor=#ffffff;dashed=0;verticalLabelPosition=bottom;verticalAlign=top;align=center;html=1;fontSize=12;fontStyle=0;aspect=fixed;shape=mxgraph.aws4.resourceIcon;resIcon=mxgraph.aws4.managed_streaming_for_kafka;" vertex="1" parent="1">
          <mxGeometry x="1180" y="380" width="70" height="70" as="geometry" />
        </mxCell>
        <mxCell id="l1sQlq1KdcyGu-_ffM4d-745" style="edgeStyle=orthogonalEdgeStyle;rounded=0;html=1;labelBackgroundColor=none;startFill=1;startSize=4;endArrow=blockThin;endFill=1;endSize=4;jettySize=auto;orthogonalLoop=1;strokeColor=#4284F3;strokeWidth=2;fontSize=12;fontColor=#000000;align=center;dashed=0;exitX=1;exitY=0.5;exitDx=0;exitDy=0;" edge="1" parent="1" target="l1sQlq1KdcyGu-_ffM4d-744">
          <mxGeometry relative="1" as="geometry">
            <Array as="points">
              <mxPoint x="1219" y="702" />
            </Array>
            <mxPoint x="770" y="701.5" as="sourcePoint" />
            <mxPoint x="1260" y="702" as="targetPoint" />
          </mxGeometry>
        </mxCell>
        <mxCell id="l1sQlq1KdcyGu-_ffM4d-748" value="数据同步" style="edgeLabel;html=1;align=center;verticalAlign=middle;resizable=0;points=[];" vertex="1" connectable="0" parent="l1sQlq1KdcyGu-_ffM4d-745">
          <mxGeometry x="-0.278" y="3" relative="1" as="geometry">
            <mxPoint y="1" as="offset" />
          </mxGeometry>
        </mxCell>
        <mxCell id="l1sQlq1KdcyGu-_ffM4d-752" style="edgeStyle=orthogonalEdgeStyle;rounded=0;orthogonalLoop=1;jettySize=auto;html=1;entryX=1;entryY=0.25;entryDx=0;entryDy=0;strokeColor=#FF6666;strokeWidth=2;" edge="1" parent="1" source="l1sQlq1KdcyGu-_ffM4d-749" target="l1sQlq1KdcyGu-_ffM4d-738">
          <mxGeometry relative="1" as="geometry">
            <Array as="points">
              <mxPoint x="1375" y="490" />
              <mxPoint x="1258" y="490" />
              <mxPoint x="1258" y="580" />
            </Array>
          </mxGeometry>
        </mxCell>
        <mxCell id="l1sQlq1KdcyGu-_ffM4d-749" value="" style="strokeColor=#dddddd;shadow=1;strokeWidth=1;rounded=1;absoluteArcSize=1;arcSize=2;" vertex="1" parent="1">
          <mxGeometry x="1310" y="385" width="130" height="60" as="geometry" />
        </mxCell>
        <mxCell id="l1sQlq1KdcyGu-_ffM4d-750" value="&lt;br&gt;Stream Engine" style="dashed=0;connectable=0;html=1;fillColor=#5184F3;strokeColor=none;shape=mxgraph.gcp2.hexIcon;prIcon=app_engine;part=1;labelPosition=right;verticalLabelPosition=middle;align=left;verticalAlign=middle;spacingLeft=5;fontColor=#999999;fontSize=12;" vertex="1" parent="l1sQlq1KdcyGu-_ffM4d-749">
          <mxGeometry y="0.5" width="44" height="39" relative="1" as="geometry">
            <mxPoint x="5" y="-19.5" as="offset" />
          </mxGeometry>
        </mxCell>
        <mxCell id="jsMgI3IwnFYApVVyTUsu-722" style="edgeStyle=orthogonalEdgeStyle;orthogonalLoop=1;jettySize=auto;html=1;curved=1;fillColor=#0050ef;strokeColor=#001DBC;strokeWidth=3;entryX=0.75;entryY=0;entryDx=0;entryDy=0;" parent="1" edge="1" target="l1sQlq1KdcyGu-_ffM4d-749">
          <mxGeometry relative="1" as="geometry">
            <Array as="points">
              <mxPoint x="1400" y="318" />
              <mxPoint x="1400" y="340" />
              <mxPoint x="1408" y="340" />
            </Array>
            <mxPoint x="1338" y="317.75" as="sourcePoint" />
            <mxPoint x="1448" y="435.25" as="targetPoint" />
          </mxGeometry>
        </mxCell>
        <mxCell id="l1sQlq1KdcyGu-_ffM4d-753" style="edgeStyle=orthogonalEdgeStyle;rounded=0;html=1;labelBackgroundColor=none;startFill=1;startSize=4;endArrow=blockThin;endFill=1;endSize=4;jettySize=auto;orthogonalLoop=1;strokeColor=#4284F3;strokeWidth=2;fontSize=12;fontColor=#000000;align=center;dashed=0;exitX=0.199;exitY=1.029;exitDx=0;exitDy=0;exitPerimeter=0;" edge="1" parent="1" source="l1sQlq1KdcyGu-_ffM4d-729">
          <mxGeometry relative="1" as="geometry">
            <Array as="points" />
            <mxPoint x="1020" y="280" as="sourcePoint" />
            <mxPoint x="1170" y="581" as="targetPoint" />
          </mxGeometry>
        </mxCell>
        <mxCell id="l1sQlq1KdcyGu-_ffM4d-754" value="创建表格" style="text;html=1;resizable=0;autosize=1;align=center;verticalAlign=middle;points=[];fillColor=none;strokeColor=none;rounded=0;" vertex="1" parent="1">
          <mxGeometry x="1119" y="250" width="60" height="20" as="geometry" />
        </mxCell>
        <mxCell id="l1sQlq1KdcyGu-_ffM4d-755" style="edgeStyle=orthogonalEdgeStyle;rounded=0;html=1;labelBackgroundColor=none;startFill=1;startSize=4;endArrow=blockThin;endFill=1;endSize=4;jettySize=auto;orthogonalLoop=1;strokeColor=#4284F3;strokeWidth=2;fontSize=12;fontColor=#000000;align=center;dashed=0;" edge="1" parent="1">
          <mxGeometry relative="1" as="geometry">
            <Array as="points">
              <mxPoint x="750" y="379" />
            </Array>
            <mxPoint x="750" y="379" as="sourcePoint" />
            <mxPoint x="750" y="520" as="targetPoint" />
          </mxGeometry>
        </mxCell>
        <mxCell id="l1sQlq1KdcyGu-_ffM4d-759" style="edgeStyle=orthogonalEdgeStyle;rounded=0;orthogonalLoop=1;jettySize=auto;html=1;strokeColor=#FF6666;strokeWidth=2;" edge="1" parent="1" source="l1sQlq1KdcyGu-_ffM4d-758" target="PuhiZ39EmkUhV1063GtV-721">
          <mxGeometry relative="1" as="geometry" />
        </mxCell>
        <mxCell id="l1sQlq1KdcyGu-_ffM4d-758" value="官方SDK" style="html=1;fillColor=#5184F3;strokeColor=none;verticalAlign=top;labelPosition=center;verticalLabelPosition=bottom;align=center;spacingTop=-6;fontSize=11;fontStyle=1;fontColor=#999999;shape=mxgraph.gcp2.hexIcon;prIcon=placeholder" vertex="1" parent="1">
          <mxGeometry x="722" y="820" width="66" height="58.5" as="geometry" />
        </mxCell>
        <mxCell id="l1sQlq1KdcyGu-_ffM4d-760" value="数据拉取" style="text;html=1;resizable=0;autosize=1;align=center;verticalAlign=middle;points=[];fillColor=none;strokeColor=none;rounded=0;" vertex="1" parent="1">
          <mxGeometry x="693.75" y="740" width="60" height="20" as="geometry" />
        </mxCell>
        <mxCell id="l1sQlq1KdcyGu-_ffM4d-761" style="edgeStyle=orthogonalEdgeStyle;rounded=0;orthogonalLoop=1;jettySize=auto;html=1;entryX=0.25;entryY=1;entryDx=0;entryDy=0;strokeColor=#FF6666;strokeWidth=2;" edge="1" parent="1" source="G245-s3OqqWEg4Bqu4Ok-720" target="PuhiZ39EmkUhV1063GtV-721">
          <mxGeometry relative="1" as="geometry" />
        </mxCell>
        <mxCell id="l1sQlq1KdcyGu-_ffM4d-762" value="数据上报" style="text;html=1;resizable=0;autosize=1;align=center;verticalAlign=middle;points=[];fillColor=none;strokeColor=none;rounded=0;" vertex="1" parent="1">
          <mxGeometry x="591" y="750" width="60" height="20" as="geometry" />
        </mxCell>
        <mxCell id="l1sQlq1KdcyGu-_ffM4d-763" value="拉数据，计算" style="text;html=1;resizable=0;autosize=1;align=center;verticalAlign=middle;points=[];fillColor=none;strokeColor=none;rounded=0;" vertex="1" parent="1">
          <mxGeometry x="1225" y="394" width="90" height="20" as="geometry" />
        </mxCell>
        <mxCell id="l1sQlq1KdcyGu-_ffM4d-764" value="写入数据" style="text;html=1;resizable=0;autosize=1;align=center;verticalAlign=middle;points=[];fillColor=none;strokeColor=none;rounded=0;" vertex="1" parent="1">
          <mxGeometry x="1300" y="498.5" width="60" height="20" as="geometry" />
        </mxCell>
        <mxCell id="l1sQlq1KdcyGu-_ffM4d-767" value="查询1个月的统计数据" style="text;html=1;resizable=0;autosize=1;align=center;verticalAlign=middle;points=[];fillColor=none;strokeColor=none;rounded=0;" vertex="1" parent="1">
          <mxGeometry x="805" y="490" width="130" height="20" as="geometry" />
        </mxCell>
        <mxCell id="l1sQlq1KdcyGu-_ffM4d-768" value="查询当天数据" style="text;html=1;resizable=0;autosize=1;align=center;verticalAlign=middle;points=[];fillColor=none;strokeColor=none;rounded=0;" vertex="1" parent="1">
          <mxGeometry x="541.25" y="580" width="90" height="20" as="geometry" />
        </mxCell>
      </root>
    </mxGraphModel>
  </diagram>
</mxfile>
